<?xml version="1.0" encoding="UTF-8"?>
<svg id="Livello_2" data-name="Livello 2" xmlns="http://www.w3.org/2000/svg" viewBox="0 0 167.73 159.96">
  <defs>
    <style>
      .cls-1 {
        fill: #fff;
        stroke-width: 0px;
      }
    </style>
  </defs>
  <g id="Livello_2-2" data-name="Livello 2">
    <path class="cls-1" d="m140.17,159.96H27.56c-15.22,0-27.56-12.34-27.56-27.56V27.56C0,12.34,12.34,0,27.56,0h112.6c15.22,0,27.56,12.34,27.56,27.56v104.84c0,15.22-12.34,27.56-27.56,27.56Zm-105.62-30.7c3.54.04,6.48-1.04,8.86-3.33,1.47-1.43,2.72-3.07,4.02-4.67,3.33-4.11,6.66-8.21,9.98-12.32,4.06-4.93,8.13-9.85,12.15-14.82,3.37-4.15,6.7-8.34,10.07-12.49s6.7-8.26,10.07-12.4c2.9-3.59,5.75-7.22,8.73-10.72,4.11-4.75,4.67-10.81,1.25-16.08-4.19-6.44-13.57-7.69-19.15-2.51-1.6,1.47-2.94,3.24-4.32,4.93-3.93,4.8-7.87,9.6-11.76,14.39-4.71,5.83-9.42,11.67-14.13,17.46-3.67,4.54-7.35,9.08-11.06,13.61-2.94,3.59-5.88,7.22-8.82,10.85-1.86,2.29-3.76,4.58-5.62,6.87-2.81,3.46-3.67,7.39-2.59,11.67,1.43,5.53,6.66,9.68,12.32,9.55h0Zm53.77,0c3.76,0,6.66-.91,8.95-3.2,1.56-1.51,2.9-3.2,4.28-4.88,2.94-3.59,5.83-7.17,8.77-10.76,3.33-4.06,6.66-8.17,9.98-12.23,2.77-3.37,5.49-6.79,8.26-10.16,3.76-4.54,4.15-10.81.82-15.65-4.88-7.13-14.91-7.43-20.27-1.38-1.77,2.03-3.46,4.19-5.14,6.31-2.72,3.33-5.4,6.66-8.08,9.98-2.55,3.2-5.14,6.35-7.74,9.51-2.94,3.59-5.75,7.26-8.77,10.76-2.98,3.46-3.98,7.43-3.03,11.8,1.25,5.75,6.53,9.98,11.97,9.9h0ZM47.73,49.6c-.04-7.26-5.88-13.01-13.14-12.92-6.92.09-12.79,5.58-12.75,13.01,0,7.3,5.96,12.97,12.97,12.79,7,.17,12.92-5.83,12.92-12.88Zm95.35-12.92c-7.13,0-12.97,5.96-12.92,13.05.04,6.83,5.88,12.88,13.1,12.79,6.87-.09,12.92-5.96,12.71-12.92.22-6.96-5.75-12.92-12.88-12.92Z"/>
  </g>
</svg>