<?xml version="1.0" encoding="utf-8"?>
<!-- Generator: Adobe Illustrator 28.0.0, SVG Export Plug-In . SVG Version: 6.00 Build 0)  -->
<svg version="1.1" id="Livello_2_00000103949726991181034150000003261771514387718833_"
	 xmlns="http://www.w3.org/2000/svg" xmlns:xlink="http://www.w3.org/1999/xlink" x="0px" y="0px" viewBox="0 0 310.5 214.2"
	 style="enable-background:new 0 0 310.5 214.2;" xml:space="preserve">
<style type="text/css">
	.st0{fill:#FCFFFF;}
</style>
<g id="Livello_1-2">
	<g>
		<path class="st0" d="M29.5,214.2c-13.1,0.3-25.2-9.3-28.5-22.1c-2.5-9.9-0.5-19,6-27c4.3-5.3,8.7-10.6,13-15.9
			c6.8-8.4,13.6-16.8,20.4-25.1C49,113.6,57.5,103.1,66,92.6c10.9-13.4,21.8-26.9,32.7-40.4c9-11.1,18.1-22.2,27.2-33.3
			c3.2-3.9,6.3-8,10-11.4c12.9-12,34.6-9.1,44.3,5.8c7.9,12.2,6.6,26.2-2.9,37.2c-6.9,8.1-13.5,16.5-20.2,24.8
			c-7.8,9.6-15.5,19.1-23.3,28.7c-7.8,9.6-15.5,19.3-23.3,28.9c-9.3,11.5-18.7,22.9-28.1,34.3c-7.7,9.5-15.4,19-23.1,28.5
			c-3,3.7-5.9,7.5-9.3,10.8C44.5,211.8,37.7,214.3,29.5,214.2L29.5,214.2z"/>
		<path class="st0" d="M153.9,214.2c-12.6,0.2-24.8-9.6-27.7-22.9c-2.2-10.1,0.1-19.3,7-27.3c7-8.1,13.5-16.6,20.3-24.9
			c6-7.3,12-14.6,17.9-22c6.2-7.7,12.4-15.4,18.7-23.1c3.9-4.9,7.8-9.9,11.9-14.6c12.4-14,35.6-13.3,46.9,3.2
			c7.7,11.2,6.8,25.7-1.9,36.2c-6.4,7.8-12.7,15.7-19.1,23.5c-7.7,9.4-15.4,18.9-23.1,28.3c-6.8,8.3-13.5,16.6-20.3,24.9
			c-3.2,3.9-6.3,7.8-9.9,11.3C169.3,212.1,162.6,214.2,153.9,214.2L153.9,214.2z"/>
		<path class="st0" d="M30.1,59.7c-16.2,0.4-30-12.7-30-29.6C0,12.9,13.6,0.2,29.6,0c16.8-0.2,30.3,13.1,30.4,29.9
			C60,46.2,46.3,60.1,30.1,59.7z"/>
		<path class="st0" d="M310.4,29.9c0.5,16.1-13.5,29.7-29.4,29.9C264.3,60,250.8,46,250.7,30.2C250.6,13.8,264.1,0,280.6,0
			C297.1,0,310.9,13.8,310.4,29.9z"/>
	</g>
</g>
</svg>
